<?xml version="1.0" encoding="utf-8"?>
<!-- Generator: Adobe Illustrator 25.4.1, SVG Export Plug-In . SVG Version: 6.00 Build 0)  -->
<svg version="1.1" id="레이어_1" xmlns="http://www.w3.org/2000/svg" xmlns:xlink="http://www.w3.org/1999/xlink" x="0px"
	 y="0px" viewBox="0 0 512 512" style="enable-background:new 0 0 512 512;" xml:space="preserve">
<style type="text/css">
	.st0{fill:#F8C77B;}
	.st1{fill:#2AA3CC;}
	.st2{fill:#F5C60D;}
	.st3{fill:#F1AE17;}
	.st4{fill:#E49200;}
	.st5{fill:#FBC400;}
	.st6{fill:#F2B400;}
	.st7{fill:#E29413;}
	.st8{fill:#55C2E4;}
	.st9{fill:#76CBF0;}
	.st10{fill:#3A4A8A;}
	.st11{fill:#3F69B2;}
	.st12{font-family:'BlackHanSans-Regular';}
	.st13{font-size:71.1292px;}
</style>
<path class="st0" d="M199.3,129.3c-11.9,5.7-23.5,11.7-35.1,18c-4.7,2.5-9.4,0.7-10.8-2.2c-2-4.1-1.5-9.5,3.4-11.8l44.9-23.7
	c3.9-2.1,8.8-0.6,10.9,3.3l0,0c2.1,3.9,0.6,8.7-3.2,10.8L199.3,129.3z"/>
<path class="st1" d="M217,102.2c-0.5,0.1-0.9,0.3-1.2,0.4c-6.6,2.9-9.6,4-10.4,4.4c-4.1,2-9.5,4.4-15.6,7.6c1.9,5.3,4.5,12,6.4,17.2
	c9-4.6,18.2-10,27.2-14.6c3.2-2.2,4.1-7.3,2.7-10.6C224.4,102.4,220.3,101.4,217,102.2z"/>
<rect x="83" y="266.7" class="st2" width="93.4" height="27.1"/>
<rect x="83" y="293.8" class="st3" width="63.1" height="93.3"/>
<rect x="83" y="293.8" class="st4" width="63.1" height="14.8"/>
<rect x="329.6" y="127" class="st5" width="112" height="28.7"/>
<rect x="368.2" y="155.7" class="st6" width="73.4" height="231.5"/>
<rect x="368.2" y="155.7" class="st7" width="73.4" height="16.7"/>
<circle class="st0" cx="241" cy="63.5" r="17.8"/>
<path class="st8" d="M208.7,104.5c0-0.2,0.1-0.4,0.2-0.7c4-11.4,11.3-16.4,20.4-16.9c10.5-0.7,20.5,8.4,20.7,20.3
	c0,0.4,0,0.7-0.1,1.1l-7.5,38.2c-0.6,3-3.5,4.9-6.5,4.3l-30.3-6.6c-2.9-0.6-4.8-3.5-4.2-6.5L208.7,104.5z"/>
<path class="st0" d="M250.9,84.6c10.7-7.7,21.1-15.6,31.5-23.8c4.2-3.3,9.1-2.3,11,0.3c2.7,3.7,3.1,9.1-1.3,12.2l-40.2,31.1
	c-3.5,2.7-8.5,2.1-11.3-1.4l0,0c-2.7-3.5-2.1-8.5,1.3-11.2L250.9,84.6z"/>
<path class="st9" d="M238.1,114.4c0.5-0.2,0.8-0.4,1.1-0.6c6-4,8.7-5.6,9.4-6.1c3.7-2.6,8.5-6,14-10.2c-2.8-4.8-6.5-11-9.3-15.9
	c-8.1,6.1-16.2,13-24.3,19.1c-2.8,2.7-2.8,7.9-0.8,10.9C230.8,115.5,235,115.7,238.1,114.4z"/>
<path class="st10" d="M141.9,198.9c-5.6,0.2-9.7-5.2-7.9-10.5c0.9-2.6,2.5-4.9,5.3-6.3c4.3-2.2,12.1-1.2,33.7-2.9
	c4.1-0.3,9.7-1.5,15.3-5.1c0.9-0.6,1.7-1.4,2.3-2.3c3.5-5.3,6.5-13.5,8.8-21.5c1.2-4.3,5.8-6.7,10-5.4h0c4.3,1.3,6.6,5.9,5.2,10.2
	c-4.4,13-9.2,25.3-12.3,28.5c-4.2,4.8-13.3,10.2-26,13.6c-0.6,0.2-1.2,0.2-1.8,0.3L141.9,198.9z"/>
<path class="st11" d="M208.6,144.8c-5.4-1.2-10.4,3.4-9.6,8.9c0.4,2.7,1.6,5.3,4.1,7.2c3.8,2.9,11.7,3.3,32.7,8.7
	c3.9,1,9.3,3.2,14.1,7.7c0.8,0.8,1.5,1.7,1.9,2.7c2.5,5.8,4,14.4,4.9,22.7c0.5,4.4,4.5,7.6,8.9,7.1l0,0c4.5-0.6,7.6-4.7,6.9-9.1
	c-2.1-13.5-4.7-26.5-7.1-30.2c-3.3-5.4-11.3-12.3-23.2-17.9c-0.5-0.3-1.1-0.5-1.7-0.6L208.6,144.8z"/>
<text transform="matrix(1 0 0 1 72.4678 469.7858)" class="st12 st13">WParkour</text>
</svg>
