<svg id="레이어_1" data-name="레이어 1" xmlns="http://www.w3.org/2000/svg" viewBox="0 0 453.66 432"><defs><style>.cls-1{fill:#f8c77b;}.cls-2{fill:#2aa3cc;}.cls-3{fill:#f5c60d;}.cls-4{fill:#f1ae17;}.cls-5{fill:#e49200;}.cls-6{fill:#fbc400;}.cls-7{fill:#f2b400;}.cls-8{fill:#e29413;}.cls-9{fill:#55c2e4;}.cls-10{fill:#76cbf0;}.cls-11{fill:#3a4a8a;}.cls-12{fill:#3f69b2;}</style></defs><path class="cls-1" d="M176.25,145.8c-15,7.28-29.69,14.81-44.42,22.74-5.92,3.17-11.89.82-13.66-2.74-2.55-5.14-1.91-12,4.26-15l56.87-30A10.18,10.18,0,0,1,193,125.1h0A10.17,10.17,0,0,1,189,138.79Z" transform="translate(-29.17 -40)"/><path class="cls-2" d="M198.7,111.46a7.78,7.78,0,0,0-1.47.53c-8.32,3.66-12.12,5.11-13.11,5.59-5.16,2.47-12,5.62-19.75,9.68,2.38,6.64,5.7,15.18,8.09,21.82,11.42-5.8,23-12.61,34.45-18.41,4.05-2.81,5.2-9.25,3.45-13.43C208,111.7,202.84,110.5,198.7,111.46Z" transform="translate(-29.17 -40)"/><rect class="cls-3" y="279.62" width="118.2" height="34.3"/><rect class="cls-4" y="313.92" width="79.82" height="118.08"/><rect class="cls-5" y="313.92" width="79.82" height="18.77"/><rect class="cls-6" x="311.9" y="102.79" width="141.76" height="36.37"/><rect class="cls-7" x="360.82" y="139.16" width="92.85" height="292.83"/><rect class="cls-8" x="360.82" y="139.16" width="92.85" height="21.18"/><circle class="cls-1" cx="199.84" cy="22.49" r="22.49"/><path class="cls-9" d="M188.18,114.41a6,6,0,0,1,.24-.83c5-14.47,14.25-20.69,25.82-21.43,13.31-.84,26,10.61,26.19,25.65a6.58,6.58,0,0,1-.13,1.4l-9.47,48.32a6.89,6.89,0,0,1-8.22,5.4l-38.31-8.36a6.9,6.9,0,0,1-5.26-8.19Z" transform="translate(-29.17 -40)"/><path class="cls-1" d="M241.51,89.16c13.5-9.77,26.66-19.74,39.79-30.1,5.27-4.16,11.56-2.88,13.92.32,3.41,4.62,4,11.51-1.59,15.47l-50.81,39.39a10.17,10.17,0,0,1-14.25-1.78h0a10.18,10.18,0,0,1,1.63-14.18Z" transform="translate(-29.17 -40)"/><path class="cls-10" d="M225.35,126.88a7.24,7.24,0,0,0,1.36-.78c7.56-5,11-7.14,11.95-7.78,4.65-3.33,10.81-7.61,17.76-13-3.5-6.13-8.25-14-11.76-20.09-10.23,7.71-20.49,16.42-30.72,24.12-3.51,3.47-3.52,10-1.07,13.82C216.12,128.26,221.44,128.54,225.35,126.88Z" transform="translate(-29.17 -40)"/><path class="cls-11" d="M103.64,233.83a10.09,10.09,0,0,1-10-13.26,13.37,13.37,0,0,1,6.66-8c5.42-2.74,15.24-1.58,42.65-3.64a41.18,41.18,0,0,0,19.31-6.46,9.92,9.92,0,0,0,2.9-2.87c4.4-6.72,8.17-17,11.08-27.16a10.09,10.09,0,0,1,12.67-6.83h0a10.1,10.1,0,0,1,6.58,12.89c-5.55,16.4-11.62,32-15.54,36.09-5.32,6-16.78,12.84-32.83,17.24a9.67,9.67,0,0,1-2.26.35Z" transform="translate(-29.17 -40)"/><path class="cls-12" d="M188.05,165.37a10.09,10.09,0,0,0-12.15,11.32,13.37,13.37,0,0,0,5.17,9.06c4.86,3.63,14.74,4.2,41.37,11a41.3,41.3,0,0,1,17.85,9.67,10.08,10.08,0,0,1,2.4,3.38c3.17,7.38,5.09,18.18,6.2,28.67a10.07,10.07,0,0,0,11.28,8.92h0a10.09,10.09,0,0,0,8.73-11.53c-2.62-17.12-5.89-33.53-9-38.26-4.19-6.88-14.3-15.56-29.34-22.68a10.4,10.4,0,0,0-2.16-.74Z" transform="translate(-29.17 -40)"/></svg>